# xmcd CD database file
#
# Track frame offsets:
#	150
#	17284
#	37585
#	58872
#	72150
#	91218
#	108577
#	119223
#	134525
#	156330
#	175931
#	193467
#	204966
#	214724
#	230520
#
# Disc length: 3367 seconds
#
# Revision: 0
# Processed by: cddbd v1.5.2PL0 Copyright (c) Steve Scherf et al.
# Submitted via: CDex 1.70beta2
#
DISCID=d60d250f
DTITLE=Bud Powell - Bebop Story Vol 3 1951-53 CD 053
DYEAR=2008
DGENRE=Jazz
TTITLE0=Un Poco Loco
TTITLE1=Un Poco Loco
TTITLE2=Un Poco Loco
TTITLE3=OverThe Rainbow
TTITLE4=A Night In Tunesia
TTITLE5=A Night In Tunesia
TTITLE6=It Could Happen To You
TTITLE7=Parisian Thoroughfare
TTITLE8=Cherokee (Noble)
TTITLE9=Embraceable You
TTITLE10=Hallelujah (Jubilee)
TTITLE11=Lullaby Of Birdland
TTITLE12=Sure Thing
TTITLE13=My Heart Stood Still
TTITLE14=I Want To Be Happy
EXTD=YEAR: 2008
EXTT0=
EXTT1=
EXTT2=
EXTT3=
EXTT4=
EXTT5=
EXTT6=
EXTT7=
EXTT8=
EXTT9=
EXTT10=
EXTT11=
EXTT12=
EXTT13=
EXTT14=
PLAYORDER=
